<svg xmlns="http://www.w3.org/2000/svg" xmlns:xlink="http://www.w3.org/1999/xlink" width="500" zoomAndPan="magnify" viewBox="0 0 375 374.999991" height="500" preserveAspectRatio="xMidYMid meet" version="1.0"><defs><g/></defs><g fill="#050a30" fill-opacity="1"><g transform="translate(116.520846, 278.144846)"><g><path d="M 73.292969 -161.332031 L 11.984375 -161.332031 L 11.984375 0 L 73.292969 0 C 124.917969 0 151.191406 -28.808594 151.191406 -80.667969 C 151.191406 -132.523438 124.917969 -161.332031 73.292969 -161.332031 Z M 70.0625 -30.421875 L 47.246094 -30.421875 L 47.246094 -130.910156 L 70.0625 -130.910156 C 104.175781 -130.910156 115.929688 -116.160156 115.929688 -80.667969 C 115.929688 -45.171875 104.175781 -30.421875 70.0625 -30.421875 Z M 70.0625 -30.421875 "/></g></g></g><g fill="#0019ff" fill-opacity="1"><g transform="translate(99.856097, 261.480099)"><g><path d="M 73.292969 -161.332031 L 11.984375 -161.332031 L 11.984375 0 L 73.292969 0 C 124.917969 0 151.191406 -28.808594 151.191406 -80.667969 C 151.191406 -132.523438 124.917969 -161.332031 73.292969 -161.332031 Z M 70.0625 -30.421875 L 47.246094 -30.421875 L 47.246094 -130.910156 L 70.0625 -130.910156 C 104.175781 -130.910156 115.929688 -116.160156 115.929688 -80.667969 C 115.929688 -45.171875 104.175781 -30.421875 70.0625 -30.421875 Z M 70.0625 -30.421875 "/></g></g></g></svg>
